<svg width="336" height="336" viewBox="0 0 336 336" fill="none" xmlns="http://www.w3.org/2000/svg">
<path d="M167.63 335.26C260.21 335.26 335.26 260.21 335.26 167.63C335.26 75.0505 260.21 0 167.63 0C75.0505 0 0 75.0505 0 167.63C0 260.21 75.0505 335.26 167.63 335.26Z" fill="white"/>
<path d="M168.41 16.7197C85.3297 16.7197 17.9697 84.0697 17.9697 167.16C17.9697 250.23 85.3197 317.58 168.41 317.58C251.48 317.58 318.83 250.23 318.83 167.16C318.84 84.0697 251.48 16.7197 168.41 16.7197ZM168.41 312.1C88.3297 312.1 23.4297 247.2 23.4297 167.15C23.4297 87.0697 88.3297 22.1897 168.41 22.1897C248.45 22.1897 313.36 87.0797 313.36 167.15C313.36 247.2 248.46 312.1 168.41 312.1Z" fill="url(#paint0_linear_1332_349)"/>
<path d="M168.47 22.2393C88.4401 22.2393 23.5601 87.1192 23.5601 167.149C23.5601 247.169 88.4401 312.039 168.47 312.039C248.5 312.039 313.36 247.159 313.36 167.149C313.36 87.1192 248.5 22.2393 168.47 22.2393ZM168.48 304.579C92.5801 304.579 31.0601 243.039 31.0601 167.159C31.0601 91.2593 92.5801 29.7393 168.48 29.7393C244.38 29.7393 305.89 91.2593 305.89 167.159C305.89 243.039 244.39 304.579 168.48 304.579Z" fill="#E9D69E"/>
<path d="M136.11 196.73C136.11 196.73 132.84 175.37 139.95 155.03C147.06 134.69 174.83 129.29 188.71 94.5C188.71 94.5 200.72 118.88 186.41 134.31C172.09 149.74 147.08 163.09 136.11 196.73Z" fill="#E9D69E"/>
<path d="M186.4 134.31C182.09 138.96 176.8 143.42 171.23 148.3C173.25 141.59 183.07 130.49 185.67 125.19C191.45 113.44 188.7 94.4902 188.7 94.4902C188.7 94.4902 200.71 118.88 186.4 134.31Z" fill="#E9D69E"/>
<path d="M183.22 122.94C174.97 133.01 138.19 155.59 135.37 185.69C135.28 177.61 136.05 166.17 139.95 155.03C147.06 134.69 174.83 129.29 188.71 94.5C188.7 94.5 190.25 114.35 183.22 122.94Z" fill="#E9D69E"/>
<path d="M98.1299 139.47C98.1299 139.47 94.7699 132.2 101.41 129.49C108.05 126.78 112.05 127.2 112.08 123.66C112.08 123.66 109.74 122.44 105.55 126.58C104.61 127.5 103.36 128.07 102.08 128.37L101.32 128.55C101.32 128.55 103.19 117.36 111.33 115.62C119.47 113.88 143.12 107.96 143.12 107.96C143.12 107.96 142.05 113.86 133.31 118.19C133.31 118.19 139.2 116.97 143.84 112.26L158.92 123.97C158.92 123.97 143.49 134.32 135.53 151.55C135.53 151.55 132.32 141.47 124.77 138.33C117.22 135.17 106.67 131.87 98.1299 139.47Z" fill="#E9D69E"/>
<path d="M143.85 112.26L158.92 123.97C158.92 123.97 157.86 124.68 156.16 126.04C156.16 126.04 149.6 119.27 139.83 115.42C141.17 114.6 142.56 113.57 143.85 112.26Z" fill="#E9D69E"/>
<path d="M120.83 113.43C130.76 111.06 143.13 107.96 143.13 107.96C143.13 107.96 142.51 111.35 138.4 114.88C133.2 113.06 127.2 112.13 120.83 113.43Z" fill="#E9D69E"/>
<path d="M121.36 130.94C134.6 133.03 135.53 151.55 135.53 151.55C135.53 151.55 132.32 141.47 124.77 138.33C117.22 135.18 106.68 131.88 98.1299 139.48C98.1299 139.47 104.7 128.31 121.36 130.94Z" fill="#E9D69E"/>
<path d="M149.56 273.87C149.56 273.87 132.39 235.17 139.51 203.3C150.66 153.44 227.86 130.64 227.44 78.2002C227.44 78.2002 245.3 119.84 220.07 149.66C216.42 153.98 195.6 171.03 192.02 190.14C192.02 190.14 222.2 185.93 230.1 155.01C230.1 155.01 236.3 188.18 217.65 205.26C191.5 229.2 160.82 229.52 149.56 273.87Z" fill="#E9D69E"/>
<path d="M220.08 149.66C218.8 151.18 215.38 154.29 211.34 158.5C228.6 127.53 227.44 78.21 227.44 78.21C227.44 78.21 245.31 119.84 220.08 149.66Z" fill="#E9D69E"/>
<path d="M230.1 155C230.1 155 236.3 188.17 217.65 205.25C214.09 208.51 210.44 211.32 206.77 213.88C228.81 187.42 230.1 155 230.1 155Z" fill="#E9D69E"/>
<path d="M139.51 203.3C150.43 154.46 224.74 131.57 227.36 81.3604C226.92 92.8404 226.71 126.88 205.35 143.91C186.47 158.96 150.16 193.7 139.09 236.76C137.49 226.04 137.06 214.26 139.51 203.3Z" fill="#E9D69E"/>
<path d="M192.03 190.13C192.03 190.13 222.21 185.92 230.11 155C230.11 155 227.33 190.68 187.14 197.21L192.05 190.09C192.03 190.11 192.03 190.12 192.03 190.13Z" fill="#E9D69E"/>
<path d="M162.88 120.16C162.88 120.16 160.99 113.84 162.27 107.39C163.56 100.94 171.72 98.1303 174.44 87.0303C174.44 87.0303 179.1 93.8903 175.43 99.1603C171.76 104.43 164.77 109.53 162.88 120.16Z" fill="#E9D69E"/>
<path d="M175.44 99.1603C174.61 100.35 173.6 101.54 172.52 102.79C176.46 95.4803 174.45 87.0303 174.45 87.0303C174.45 87.0303 179.11 93.8903 175.44 99.1603Z" fill="#E9D69E"/>
<path d="M171.23 98.3C167.92 101.94 164.08 106.05 162.04 108.89C162.1 108.39 162.18 107.9 162.28 107.4C163.57 100.95 171.73 98.1401 174.45 87.0401C174.45 87.0301 175.98 93.07 171.23 98.3Z" fill="#E9D69E"/>
<defs>
<linearGradient id="paint0_linear_1332_349" x1="168.406" y1="358.033" x2="168.406" y2="-37.0627" gradientUnits="userSpaceOnUse">
<stop stop-color="#9F7742"/>
<stop offset="1" stop-color="#E9D69E"/>
</linearGradient>
</defs>
</svg>
