<?xml version="1.0" encoding="utf-8"?>
<!-- Generator: Adobe Illustrator 24.3.0, SVG Export Plug-In . SVG Version: 6.00 Build 0)  -->
<svg version="1.1" id="Layer_1" xmlns="http://www.w3.org/2000/svg" xmlns:xlink="http://www.w3.org/1999/xlink" x="0px" y="0px"
	 viewBox="0 0 841.89 595.28" style="enable-background:new 0 0 841.89 595.28;" xml:space="preserve">
<style type="text/css">
	.st0{fill:#121E44;}
	.st1{fill:url(#SVGID_1_);}
	.st2{fill:#E9D69E;}
</style>
<circle class="st0" cx="418.81" cy="304.66" r="167.63"/>
<linearGradient id="SVGID_1_" gradientUnits="userSpaceOnUse" x1="419.5867" y1="495.0638" x2="419.5867" y2="99.9676">
	<stop  offset="0" style="stop-color:#9F7742"/>
	<stop  offset="1" style="stop-color:#E9D69E"/>
</linearGradient>
<path class="st1" d="M419.59,153.75c-83.08,0-150.44,67.35-150.44,150.44c0,83.07,67.35,150.42,150.44,150.42
	c83.07,0,150.42-67.35,150.42-150.42C570.02,221.1,502.66,153.75,419.59,153.75z M419.59,449.13c-80.08,0-144.98-64.9-144.98-144.95
	c0-80.08,64.9-144.96,144.98-144.96c80.04,0,144.95,64.89,144.95,144.96C564.54,384.23,499.64,449.13,419.59,449.13z"/>
<path class="st2" d="M419.65,159.27c-80.03,0-144.91,64.88-144.91,144.91c0,80.02,64.88,144.89,144.91,144.89
	c80.03,0,144.89-64.88,144.89-144.89C564.54,224.15,499.68,159.27,419.65,159.27z M419.66,441.61
	c-75.9,0-137.42-61.54-137.42-137.42c0-75.9,61.52-137.42,137.42-137.42s137.41,61.52,137.41,137.42
	C557.07,380.07,495.57,441.61,419.66,441.61z"/>
<g>
	<g>
		<path class="st2" d="M387.29,333.76c0,0-3.27-21.36,3.84-41.7c7.11-20.34,34.88-25.74,48.76-60.53c0,0,12.01,24.38-2.3,39.81
			C423.27,286.77,398.26,300.12,387.29,333.76z"/>
		<path class="st2" d="M437.58,271.34c-4.31,4.65-9.6,9.11-15.17,13.99c2.02-6.71,11.84-17.81,14.44-23.11
			c5.78-11.75,3.03-30.7,3.03-30.7S451.89,255.91,437.58,271.34z"/>
		<path class="st2" d="M434.4,259.97c-8.25,10.07-45.03,32.65-47.85,62.75c-0.09-8.08,0.68-19.52,4.58-30.66
			c7.11-20.34,34.88-25.74,48.76-60.53C439.88,231.53,441.43,251.38,434.4,259.97z"/>
	</g>
	<g>
		<path class="st2" d="M349.31,276.5c0,0-3.36-7.27,3.28-9.98c6.64-2.71,10.64-2.29,10.67-5.83c0,0-2.34-1.22-6.53,2.92
			c-0.94,0.92-2.19,1.49-3.47,1.79l-0.76,0.18c0,0,1.87-11.19,10.01-12.93c8.14-1.74,31.79-7.66,31.79-7.66s-1.07,5.9-9.81,10.23
			c0,0,5.89-1.22,10.53-5.93L410.1,261c0,0-15.43,10.35-23.39,27.58c0,0-3.21-10.08-10.76-13.22
			C368.4,272.2,357.85,268.9,349.31,276.5z"/>
		<g>
			<path class="st2" d="M395.03,249.29L410.1,261c0,0-1.06,0.71-2.76,2.07c0,0-6.56-6.77-16.33-10.62
				C392.35,251.63,393.74,250.6,395.03,249.29z"/>
			<path class="st2" d="M372.01,250.46c9.93-2.37,22.3-5.47,22.3-5.47s-0.62,3.39-4.73,6.92
				C384.38,250.09,378.38,249.16,372.01,250.46z"/>
		</g>
		<path class="st2" d="M372.54,267.97c13.24,2.09,14.17,20.61,14.17,20.61s-3.21-10.08-10.76-13.22
			c-7.55-3.15-18.09-6.45-26.64,1.15C349.31,276.5,355.88,265.34,372.54,267.97z"/>
	</g>
	<g>
		<path class="st2" d="M400.74,410.9c0,0-17.17-38.7-10.05-70.57c11.15-49.86,88.35-72.66,87.93-125.1c0,0,17.86,41.64-7.37,71.46
			c-3.65,4.32-24.47,21.37-28.05,40.48c0,0,30.18-4.21,38.08-35.13c0,0,6.2,33.17-12.45,50.25
			C442.68,366.23,412,366.55,400.74,410.9z"/>
		<path class="st2" d="M471.26,286.69c-1.28,1.52-4.7,4.63-8.74,8.84c17.26-30.97,16.1-80.29,16.1-80.29
			S496.49,256.87,471.26,286.69z"/>
		<path class="st2" d="M481.28,292.03c0,0,6.2,33.17-12.45,50.25c-3.56,3.26-7.21,6.07-10.88,8.63
			C479.99,324.45,481.28,292.03,481.28,292.03z"/>
		<g>
			<path class="st2" d="M390.69,340.33c10.92-48.84,85.23-71.73,87.85-121.94c-0.44,11.48-0.65,45.52-22.01,62.55
				c-18.88,15.05-55.19,49.79-66.26,92.85C388.67,363.07,388.24,351.29,390.69,340.33z"/>
		</g>
		<path class="st2" d="M443.21,327.16c0,0,30.18-4.21,38.08-35.13c0,0-2.78,35.68-42.97,42.21l4.91-7.12
			C443.21,327.14,443.21,327.15,443.21,327.16z"/>
	</g>
	<g>
		<path class="st2" d="M414.06,257.19c0,0-1.89-6.32-0.61-12.77c1.29-6.45,9.45-9.26,12.17-20.36c0,0,4.66,6.86,0.99,12.13
			C422.94,241.46,415.95,246.56,414.06,257.19z"/>
		<path class="st2" d="M426.62,236.19c-0.83,1.19-1.84,2.38-2.92,3.63c3.94-7.31,1.93-15.76,1.93-15.76S430.29,230.92,426.62,236.19
			z"/>
		<path class="st2" d="M422.41,235.33c-3.31,3.64-7.15,7.75-9.19,10.59c0.06-0.5,0.14-0.99,0.24-1.49
			c1.29-6.45,9.45-9.26,12.17-20.36C425.63,224.06,427.16,230.1,422.41,235.33z"/>
	</g>
</g>
</svg>
