<?xml version="1.0" encoding="UTF-8"?>
<!DOCTYPE svg PUBLIC "-//W3C//DTD SVG 1.1//EN" "http://www.w3.org/Graphics/SVG/1.1/DTD/svg11.dtd">
<svg xmlns="http://www.w3.org/2000/svg" version="1.1" width="1085px" height="352px" style="shape-rendering:geometricPrecision; text-rendering:geometricPrecision; image-rendering:optimizeQuality; fill-rule:evenodd; clip-rule:evenodd" xmlns:xlink="http://www.w3.org/1999/xlink">
<g><path style="opacity:0.99" fill="#323232" d="M 57.5,-0.5 C 58.1667,-0.5 58.8333,-0.5 59.5,-0.5C 82.2729,25.4231 109.273,45.9231 140.5,61C 158.409,68.8106 177.075,73.8106 196.5,76C 210.5,85.3333 224.5,94.6667 238.5,104C 239.177,125.486 238.344,146.986 236,168.5C 159.006,229.399 82.1728,290.399 5.5,351.5C 5.16667,351.5 4.83333,351.5 4.5,351.5C 3.23473,350.521 1.9014,349.521 0.5,348.5C 23.4453,322.052 46.9453,296.052 71,270.5C 88.6356,242.033 106.469,213.7 124.5,185.5C 73.0743,164.903 42.9077,127.236 34,72.5C 30.7493,44.4233 38.5827,20.0899 57.5,-0.5 Z"/></g>
<g><path style="opacity:0.986" fill="#2fafc6" d="M 227.5,30.5 C 247.708,35.3085 267.874,40.3085 288,45.5C 288.405,64.5054 288.905,83.5054 289.5,102.5C 273.497,102.667 257.497,102.5 241.5,102C 226.833,92 212.167,82 197.5,72C 207.632,58.2257 217.632,44.3924 227.5,30.5 Z"/></g>
<g><path style="opacity:0.928" fill="#323232" d="M 291.5,51.5 C 300.866,53.9543 310.2,56.6209 319.5,59.5C 319.762,60.9778 319.429,62.3112 318.5,63.5C 309.785,70.0564 300.951,76.3898 292,82.5C 291.5,72.172 291.334,61.8387 291.5,51.5 Z"/></g>
<g><path style="opacity:0.983" fill="#323232" d="M 305.5,90.5 C 337.502,90.3334 369.502,90.5 401.5,91C 407.088,93.5864 410.921,97.7531 413,103.5C 413.667,130.833 413.667,158.167 413,185.5C 410.921,191.247 407.088,195.414 401.5,198C 380.503,198.5 359.503,198.667 338.5,198.5C 338.5,220.167 338.5,241.833 338.5,263.5C 327.5,263.5 316.5,263.5 305.5,263.5C 305.5,205.833 305.5,148.167 305.5,90.5 Z M 338.5,113.5 C 352.167,113.5 365.833,113.5 379.5,113.5C 379.5,131.833 379.5,150.167 379.5,168.5C 365.833,168.5 352.167,168.5 338.5,168.5C 338.5,150.167 338.5,131.833 338.5,113.5 Z"/></g>
<g><path style="opacity:0.98" fill="#323232" d="M 459.5,90.5 C 471.918,89.8659 484.084,90.5325 496,92.5C 511.423,148.358 526.923,204.191 542.5,260C 542.415,261.107 542.081,262.107 541.5,263C 516.502,263.5 491.502,263.667 466.5,263.5C 468.935,255.127 472.602,247.294 477.5,240C 485.521,239.832 493.521,239.332 501.5,238.5C 493.355,208.587 485.522,178.587 478,148.5C 467.545,185.985 457.545,223.652 448,261.5C 447.5,262 447,262.5 446.5,263C 435.172,263.5 423.838,263.667 412.5,263.5C 427.696,205.718 443.362,148.051 459.5,90.5 Z"/></g>
<g><path style="opacity:0.976" fill="#323232" d="M 553.5,90.5 C 585.835,90.3334 618.168,90.5 650.5,91C 657.386,93.8879 661.219,99.0546 662,106.5C 662.667,128.5 662.667,150.5 662,172.5C 658.549,184.663 650.382,189.996 637.5,188.5C 646.313,213.27 654.313,238.27 661.5,263.5C 650.828,263.667 640.161,263.5 629.5,263C 618.209,230.962 607.209,198.795 596.5,166.5C 607.146,165.501 617.813,165.168 628.5,165.5C 628.5,148.167 628.5,130.833 628.5,113.5C 614.833,113.5 601.167,113.5 587.5,113.5C 587.5,163.5 587.5,213.5 587.5,263.5C 576.252,263.821 565.085,263.487 554,262.5C 553.5,205.168 553.333,147.834 553.5,90.5 Z"/></g>
<g><path style="opacity:0.976" fill="#323232" d="M 676.5,90.5 C 708.502,90.3334 740.502,90.5 772.5,91C 780.157,93.7969 784.323,99.2969 785,107.5C 785.947,130.542 785.614,153.542 784,176.5C 779.116,186.19 771.283,189.856 760.5,187.5C 768.223,211.168 776.056,234.835 784,258.5C 784.494,260.134 784.66,261.801 784.5,263.5C 773.828,263.667 763.161,263.5 752.5,263C 740.616,230.849 729.616,198.349 719.5,165.5C 730.167,165.5 740.833,165.5 751.5,165.5C 751.5,148.167 751.5,130.833 751.5,113.5C 737.833,113.5 724.167,113.5 710.5,113.5C 710.667,163.168 710.5,212.834 710,262.5C 699.243,263.653 688.41,263.82 677.5,263C 676.502,205.571 676.169,148.071 676.5,90.5 Z"/></g>
<g><path style="opacity:0.979" fill="#323232" d="M 811.5,90.5 C 839.502,90.3334 867.502,90.5 895.5,91C 901.307,92.8072 905.141,96.6405 907,102.5C 907.667,151.833 907.667,201.167 907,250.5C 903.478,259.854 896.645,264.02 886.5,263C 863.5,263.667 840.5,263.667 817.5,263C 808.346,262.685 802.512,258.185 800,249.5C 799.333,200.833 799.333,152.167 800,103.5C 801.617,97.0578 805.45,92.7245 811.5,90.5 Z M 835.5,112.5 C 847.5,112.5 859.5,112.5 871.5,112.5C 871.5,155.5 871.5,198.5 871.5,241.5C 859.5,241.5 847.5,241.5 835.5,241.5C 835.5,198.5 835.5,155.5 835.5,112.5 Z"/></g>
<g><path style="opacity:0.969" fill="#323232" d="M 1084.5,90.5 C 1084.5,143.167 1084.5,195.833 1084.5,248.5C 1081.67,257.152 1075.67,261.986 1066.5,263C 1024.17,263.667 981.833,263.667 939.5,263C 931.716,261.887 926.216,257.72 923,250.5C 922.5,197.168 922.333,143.834 922.5,90.5C 933.833,90.5 945.167,90.5 956.5,90.5C 956.5,140.167 956.5,189.833 956.5,239.5C 966.5,239.5 976.5,239.5 986.5,239.5C 986.5,189.833 986.5,140.167 986.5,90.5C 997.833,90.5 1009.17,90.5 1020.5,90.5C 1020.5,140.167 1020.5,189.833 1020.5,239.5C 1030.5,239.5 1040.5,239.5 1050.5,239.5C 1050.5,189.833 1050.5,140.167 1050.5,90.5C 1061.83,90.5 1073.17,90.5 1084.5,90.5 Z"/></g>
<g><path style="opacity:0.974" fill="#323232" d="M 243.5,106.5 C 258.837,106.333 274.17,106.5 289.5,107C 291.841,118.386 293.341,129.886 294,141.5C 276.454,150.023 258.954,158.69 241.5,167.5C 241.167,165.5 240.833,163.5 240.5,161.5C 241.832,143.182 242.832,124.849 243.5,106.5 Z"/></g>
<g><path style="opacity:0.994" fill="#f3b232" d="M 293.5,145.5 C 294.787,146.871 295.453,148.705 295.5,151C 294.354,167.875 292.854,184.708 291,201.5C 273.869,220.966 256.369,240.133 238.5,259C 189.844,270.164 141.177,281.331 92.5,292.5C 92.1667,292.167 91.8333,291.833 91.5,291.5C 139.127,253.344 186.794,215.178 234.5,177C 254.228,166.471 273.895,155.971 293.5,145.5 Z"/></g>
</svg>
