<?xml version="1.0" encoding="UTF-8"?>
<!DOCTYPE svg PUBLIC "-//W3C//DTD SVG 1.1//EN" "http://www.w3.org/Graphics/SVG/1.1/DTD/svg11.dtd">
<svg xmlns="http://www.w3.org/2000/svg" version="1.1" width="1085px" height="352px" style="shape-rendering:geometricPrecision; text-rendering:geometricPrecision; image-rendering:optimizeQuality; fill-rule:evenodd; clip-rule:evenodd" xmlns:xlink="http://www.w3.org/1999/xlink">
<g><path style="opacity:0.989" fill="#fefefe" d="M 57.5,-0.5 C 57.8333,-0.5 58.1667,-0.5 58.5,-0.5C 84.7445,28.7951 116.078,50.9617 152.5,66C 166.817,70.8635 181.484,74.1969 196.5,76C 210.5,85.3333 224.5,94.6667 238.5,104C 239.177,125.486 238.344,146.986 236,168.5C 234.833,169.667 233.667,170.833 232.5,172C 156.691,231.317 81.3582,291.15 6.5,351.5C 5.83333,351.5 5.16667,351.5 4.5,351.5C 2.95767,350.859 1.62434,349.859 0.5,348.5C 23.4453,322.052 46.9453,296.052 71,270.5C 88.8333,242.167 106.667,213.833 124.5,185.5C 77.8478,167.348 48.3478,134.014 36,85.5C 28.5348,52.9435 35.7015,24.2768 57.5,-0.5 Z"/></g>
<g><path style="opacity:0.989" fill="#2fafc6" d="M 226.5,31.5 C 247.171,35.4597 267.671,40.1264 288,45.5C 288.421,64.838 288.921,84.1714 289.5,103.5C 273.464,103.866 257.464,103.366 241.5,102C 226.833,92 212.167,82 197.5,72C 207.544,58.7351 217.211,45.2351 226.5,31.5 Z"/></g>
<g><path style="opacity:0.909" fill="#fbfbfb" d="M 292.5,52.5 C 301.573,55.024 310.573,57.8573 319.5,61C 310.975,67.6924 302.308,74.1924 293.5,80.5C 292.502,71.1904 292.168,61.8571 292.5,52.5 Z"/></g>
<g><path style="opacity:0.969" fill="#fefefe" d="M 305.5,90.5 C 337.168,90.3334 368.835,90.5 400.5,91C 406.667,93.1667 410.833,97.3333 413,103.5C 413.667,130.833 413.667,158.167 413,185.5C 411.108,191.449 407.275,195.616 401.5,198C 380.503,198.5 359.503,198.667 338.5,198.5C 338.5,220.167 338.5,241.833 338.5,263.5C 327.5,263.5 316.5,263.5 305.5,263.5C 305.5,205.833 305.5,148.167 305.5,90.5 Z M 338.5,113.5 C 352.167,113.5 365.833,113.5 379.5,113.5C 379.5,132.167 379.5,150.833 379.5,169.5C 365.833,169.5 352.167,169.5 338.5,169.5C 338.5,150.833 338.5,132.167 338.5,113.5 Z"/></g>
<g><path style="opacity:0.974" fill="#fefefe" d="M 459.5,90.5 C 471.5,90.5 483.5,90.5 495.5,90.5C 511.64,148.06 527.306,205.727 542.5,263.5C 517.167,263.5 491.833,263.5 466.5,263.5C 468.854,255.621 472.187,248.121 476.5,241C 484.827,240.5 493.16,240.334 501.5,240.5C 493.969,210.045 485.969,179.711 477.5,149.5C 467.356,186.741 457.523,224.074 448,261.5C 447.5,262 447,262.5 446.5,263C 435.172,263.5 423.838,263.667 412.5,263.5C 427.696,205.717 443.363,148.05 459.5,90.5 Z"/></g>
<g><path style="opacity:0.969" fill="#fefefe" d="M 553.5,90.5 C 585.502,90.3334 617.502,90.5 649.5,91C 656.862,93.5416 661.028,98.7083 662,106.5C 662.167,117.5 662.333,128.5 662.5,139.5C 662.626,151.887 662.126,164.22 661,176.5C 659.802,180.746 657.302,183.913 653.5,186C 648.255,187.43 642.922,188.43 637.5,189C 646.406,213.55 654.406,238.383 661.5,263.5C 650.828,263.667 640.161,263.5 629.5,263C 618.209,230.962 607.209,198.795 596.5,166.5C 607.146,165.501 617.813,165.168 628.5,165.5C 628.5,148.167 628.5,130.833 628.5,113.5C 614.833,113.5 601.167,113.5 587.5,113.5C 587.5,163.5 587.5,213.5 587.5,263.5C 576.252,263.821 565.085,263.487 554,262.5C 553.5,205.168 553.333,147.834 553.5,90.5 Z"/></g>
<g><path style="opacity:0.969" fill="#fefefe" d="M 676.5,90.5 C 708.502,90.3334 740.502,90.5 772.5,91C 780.157,93.7969 784.323,99.2969 785,107.5C 785.947,130.542 785.614,153.542 784,176.5C 779.233,186.138 771.4,190.471 760.5,189.5C 769.118,214.019 777.118,238.686 784.5,263.5C 773.828,263.667 763.161,263.5 752.5,263C 740.616,230.849 729.616,198.349 719.5,165.5C 730.167,165.5 740.833,165.5 751.5,165.5C 751.5,148.167 751.5,130.833 751.5,113.5C 737.833,113.5 724.167,113.5 710.5,113.5C 710.667,163.168 710.5,212.834 710,262.5C 699.243,263.653 688.41,263.82 677.5,263C 676.502,205.571 676.169,148.071 676.5,90.5 Z"/></g>
<g><path style="opacity:0.979" fill="#fefefe" d="M 811.5,90.5 C 839.502,90.3334 867.502,90.5 895.5,91C 901.333,92.8333 905.167,96.6667 907,102.5C 907.667,151.833 907.667,201.167 907,250.5C 904.003,259.255 897.836,263.422 888.5,263C 864.5,263.667 840.5,263.667 816.5,263C 807.787,262.397 802.287,257.897 800,249.5C 799.333,201.167 799.333,152.833 800,104.5C 801.738,97.9772 805.571,93.3106 811.5,90.5 Z M 835.5,112.5 C 847.5,112.5 859.5,112.5 871.5,112.5C 871.5,155.5 871.5,198.5 871.5,241.5C 859.5,241.5 847.5,241.5 835.5,241.5C 835.5,198.5 835.5,155.5 835.5,112.5 Z"/></g>
<g><path style="opacity:0.964" fill="#fefefe" d="M 1084.5,90.5 C 1084.5,143.167 1084.5,195.833 1084.5,248.5C 1082.19,257.024 1076.52,261.858 1067.5,263C 1024.83,263.667 982.167,263.667 939.5,263C 931.334,262.336 925.834,258.169 923,250.5C 922.5,197.168 922.333,143.834 922.5,90.5C 933.833,90.5 945.167,90.5 956.5,90.5C 956.5,140.5 956.5,190.5 956.5,240.5C 966.5,240.5 976.5,240.5 986.5,240.5C 986.5,190.5 986.5,140.5 986.5,90.5C 997.833,90.5 1009.17,90.5 1020.5,90.5C 1020.5,140.5 1020.5,190.5 1020.5,240.5C 1030.5,240.5 1040.5,240.5 1050.5,240.5C 1050.5,190.5 1050.5,140.5 1050.5,90.5C 1061.83,90.5 1073.17,90.5 1084.5,90.5 Z"/></g>
<g><path style="opacity:0.97" fill="#fefefe" d="M 243.5,106.5 C 258.837,106.333 274.17,106.5 289.5,107C 291.394,117.418 293.06,127.918 294.5,138.5C 294.43,139.772 294.097,140.938 293.5,142C 276.044,151.062 258.378,159.562 240.5,167.5C 241.675,147.176 242.675,126.843 243.5,106.5 Z"/></g>
<g><path style="opacity:0.994" fill="#f3b232" d="M 294.5,145.5 C 294.652,164.393 293.486,183.393 291,202.5C 273.167,221.667 255.333,240.833 237.5,260C 188.734,271.116 140.067,281.616 91.5,291.5C 139.998,252.507 188.665,213.674 237.5,175C 256.593,165.122 275.593,155.289 294.5,145.5 Z"/></g>
</svg>
