<svg width="1554" height="336" viewBox="0 0 1554 336" fill="none" xmlns="http://www.w3.org/2000/svg">
<path d="M167.63 335.26C260.21 335.26 335.26 260.21 335.26 167.63C335.26 75.0505 260.21 0 167.63 0C75.0505 0 0 75.0505 0 167.63C0 260.21 75.0505 335.26 167.63 335.26Z" fill="white"/>
<path d="M168.41 16.7197C85.3297 16.7197 17.9697 84.0697 17.9697 167.16C17.9697 250.23 85.3197 317.58 168.41 317.58C251.48 317.58 318.83 250.23 318.83 167.16C318.84 84.0697 251.48 16.7197 168.41 16.7197ZM168.41 312.1C88.3297 312.1 23.4297 247.2 23.4297 167.15C23.4297 87.0697 88.3297 22.1897 168.41 22.1897C248.45 22.1897 313.36 87.0797 313.36 167.15C313.36 247.2 248.46 312.1 168.41 312.1Z" fill="url(#paint0_linear_1332_320)"/>
<path d="M168.47 22.2393C88.4401 22.2393 23.5601 87.1192 23.5601 167.149C23.5601 247.169 88.4401 312.039 168.47 312.039C248.5 312.039 313.36 247.159 313.36 167.149C313.36 87.1192 248.5 22.2393 168.47 22.2393ZM168.48 304.579C92.5801 304.579 31.0601 243.039 31.0601 167.159C31.0601 91.2593 92.5801 29.7393 168.48 29.7393C244.38 29.7393 305.89 91.2593 305.89 167.159C305.89 243.039 244.39 304.579 168.48 304.579Z" fill="#E9D69E"/>
<path d="M136.11 196.73C136.11 196.73 132.84 175.37 139.95 155.03C147.06 134.69 174.83 129.29 188.71 94.5C188.71 94.5 200.72 118.88 186.41 134.31C172.09 149.74 147.08 163.09 136.11 196.73Z" fill="#E9D69E"/>
<path d="M186.4 134.31C182.09 138.96 176.8 143.42 171.23 148.3C173.25 141.59 183.07 130.49 185.67 125.19C191.45 113.44 188.7 94.4902 188.7 94.4902C188.7 94.4902 200.71 118.88 186.4 134.31Z" fill="#E9D69E"/>
<path d="M183.22 122.94C174.97 133.01 138.19 155.59 135.37 185.69C135.28 177.61 136.05 166.17 139.95 155.03C147.06 134.69 174.83 129.29 188.71 94.5C188.7 94.5 190.25 114.35 183.22 122.94Z" fill="#E9D69E"/>
<path d="M98.1299 139.47C98.1299 139.47 94.7699 132.2 101.41 129.49C108.05 126.78 112.05 127.2 112.08 123.66C112.08 123.66 109.74 122.44 105.55 126.58C104.61 127.5 103.36 128.07 102.08 128.37L101.32 128.55C101.32 128.55 103.19 117.36 111.33 115.62C119.47 113.88 143.12 107.96 143.12 107.96C143.12 107.96 142.05 113.86 133.31 118.19C133.31 118.19 139.2 116.97 143.84 112.26L158.92 123.97C158.92 123.97 143.49 134.32 135.53 151.55C135.53 151.55 132.32 141.47 124.77 138.33C117.22 135.17 106.67 131.87 98.1299 139.47Z" fill="#E9D69E"/>
<path d="M143.85 112.26L158.92 123.97C158.92 123.97 157.86 124.68 156.16 126.04C156.16 126.04 149.6 119.27 139.83 115.42C141.17 114.6 142.56 113.57 143.85 112.26Z" fill="#E9D69E"/>
<path d="M120.83 113.43C130.76 111.06 143.13 107.96 143.13 107.96C143.13 107.96 142.51 111.35 138.4 114.88C133.2 113.06 127.2 112.13 120.83 113.43Z" fill="#E9D69E"/>
<path d="M121.36 130.94C134.6 133.03 135.53 151.55 135.53 151.55C135.53 151.55 132.32 141.47 124.77 138.33C117.22 135.18 106.68 131.88 98.1299 139.48C98.1299 139.47 104.7 128.31 121.36 130.94Z" fill="#E9D69E"/>
<path d="M149.56 273.87C149.56 273.87 132.39 235.17 139.51 203.3C150.66 153.44 227.86 130.64 227.44 78.2002C227.44 78.2002 245.3 119.84 220.07 149.66C216.42 153.98 195.6 171.03 192.02 190.14C192.02 190.14 222.2 185.93 230.1 155.01C230.1 155.01 236.3 188.18 217.65 205.26C191.5 229.2 160.82 229.52 149.56 273.87Z" fill="#E9D69E"/>
<path d="M220.08 149.66C218.8 151.18 215.38 154.29 211.34 158.5C228.6 127.53 227.44 78.21 227.44 78.21C227.44 78.21 245.31 119.84 220.08 149.66Z" fill="#E9D69E"/>
<path d="M230.1 155C230.1 155 236.3 188.17 217.65 205.25C214.09 208.51 210.44 211.32 206.77 213.88C228.81 187.42 230.1 155 230.1 155Z" fill="#E9D69E"/>
<path d="M139.51 203.3C150.43 154.46 224.74 131.57 227.36 81.3604C226.92 92.8404 226.71 126.88 205.35 143.91C186.47 158.96 150.16 193.7 139.09 236.76C137.49 226.04 137.06 214.26 139.51 203.3Z" fill="#E9D69E"/>
<path d="M192.03 190.13C192.03 190.13 222.21 185.92 230.11 155C230.11 155 227.33 190.68 187.14 197.21L192.05 190.09C192.03 190.11 192.03 190.12 192.03 190.13Z" fill="#E9D69E"/>
<path d="M162.88 120.16C162.88 120.16 160.99 113.84 162.27 107.39C163.56 100.94 171.72 98.1303 174.44 87.0303C174.44 87.0303 179.1 93.8903 175.43 99.1603C171.76 104.43 164.77 109.53 162.88 120.16Z" fill="#E9D69E"/>
<path d="M175.44 99.1603C174.61 100.35 173.6 101.54 172.52 102.79C176.46 95.4803 174.45 87.0303 174.45 87.0303C174.45 87.0303 179.11 93.8903 175.44 99.1603Z" fill="#E9D69E"/>
<path d="M171.23 98.3C167.92 101.94 164.08 106.05 162.04 108.89C162.1 108.39 162.18 107.9 162.28 107.4C163.57 100.95 171.73 98.1401 174.45 87.0401C174.45 87.0301 175.98 93.07 171.23 98.3Z" fill="#E9D69E"/>
<path d="M415.6 203.8V181.6H501.2V203.8H415.6ZM383.4 232L444.2 102.6H473L534.4 232H505.4L452.2 115.4H465L412.2 232H383.4ZM597.041 234.2C587.041 234.2 577.974 232.067 569.841 227.8C561.841 223.4 555.507 217.333 550.841 209.6C546.174 201.733 543.841 192.667 543.841 182.4C543.841 171.867 546.107 162.733 550.641 155C555.307 147.267 561.641 141.267 569.641 137C577.641 132.6 586.774 130.4 597.041 130.4C605.974 130.4 613.574 131.733 619.841 134.4C626.107 137.067 631.174 140.8 635.041 145.6C638.907 150.267 641.707 155.733 643.441 162C645.307 168.267 646.241 175.067 646.241 182.4C646.241 188.267 645.307 194.267 643.441 200.4C641.574 206.4 638.707 212 634.841 217.2C630.974 222.267 625.907 226.4 619.641 229.6C613.374 232.667 605.841 234.2 597.041 234.2ZM605.441 214.2C613.307 214.2 620.107 212.867 625.841 210.2C631.574 207.533 635.974 203.8 639.041 199C642.107 194.2 643.641 188.667 643.641 182.4C643.641 175.6 642.041 169.867 638.841 165.2C635.774 160.4 631.374 156.733 625.641 154.2C620.041 151.667 613.307 150.4 605.441 150.4C594.374 150.4 585.774 153.333 579.641 159.2C573.507 165.067 570.441 172.8 570.441 182.4C570.441 188.8 571.907 194.4 574.841 199.2C577.774 203.867 581.841 207.533 587.041 210.2C592.374 212.867 598.507 214.2 605.441 214.2ZM643.641 92.6H669.641V232H645.441C645.041 228.933 644.641 225 644.241 220.2C643.841 215.267 643.641 210.667 643.641 206.4V92.6ZM788.264 199H813.464C812.397 205.8 809.531 211.867 804.864 217.2C800.331 222.533 794.131 226.733 786.264 229.8C778.397 232.867 768.797 234.4 757.464 234.4C744.797 234.4 733.597 232.4 723.864 228.4C714.131 224.267 706.531 218.333 701.064 210.6C695.597 202.867 692.864 193.533 692.864 182.6C692.864 171.667 695.531 162.333 700.864 154.6C706.197 146.733 713.597 140.733 723.064 136.6C732.664 132.467 743.864 130.4 756.664 130.4C769.731 130.4 780.597 132.467 789.264 136.6C797.931 140.733 804.331 147 808.464 155.4C812.731 163.667 814.531 174.267 813.864 187.2H719.064C719.731 192.267 721.597 196.867 724.664 201C727.864 205.133 732.131 208.4 737.464 210.8C742.931 213.2 749.397 214.4 756.864 214.4C765.131 214.4 771.997 213 777.464 210.2C783.064 207.267 786.664 203.533 788.264 199ZM755.464 150.2C745.864 150.2 738.064 152.333 732.064 156.6C726.064 160.733 722.197 165.867 720.464 172H788.064C787.397 165.333 784.197 160.067 778.464 156.2C772.864 152.2 765.197 150.2 755.464 150.2ZM833.211 132.6H859.211V232H833.211V132.6ZM897.411 154C889.944 154 883.478 155.467 878.011 158.4C872.544 161.2 868.144 164.667 864.811 168.8C861.478 172.933 859.144 176.933 857.811 180.8L857.611 169.8C857.744 168.2 858.278 165.867 859.211 162.8C860.144 159.6 861.544 156.2 863.411 152.6C865.278 148.867 867.744 145.333 870.811 142C873.878 138.533 877.611 135.733 882.011 133.6C886.411 131.467 891.544 130.4 897.411 130.4V154ZM961.884 234.2C952.018 234.2 943.018 232.067 934.884 227.8C926.884 223.4 920.484 217.333 915.684 209.6C911.018 201.733 908.684 192.667 908.684 182.4C908.684 171.867 911.084 162.733 915.884 155C920.684 147.267 927.151 141.267 935.284 137C943.551 132.6 952.884 130.4 963.284 130.4C974.751 130.4 983.951 132.733 990.884 137.4C997.951 141.933 1003.08 148.133 1006.28 156C1009.48 163.867 1011.08 172.667 1011.08 182.4C1011.08 188.267 1010.15 194.267 1008.28 200.4C1006.42 206.4 1003.55 212 999.684 217.2C995.818 222.267 990.751 226.4 984.484 229.6C978.218 232.667 970.684 234.2 961.884 234.2ZM970.284 214.2C978.151 214.2 984.951 212.867 990.684 210.2C996.418 207.533 1000.82 203.8 1003.88 199C1006.95 194.2 1008.48 188.667 1008.48 182.4C1008.48 175.6 1006.88 169.867 1003.68 165.2C1000.62 160.4 996.218 156.8 990.484 154.4C984.884 151.867 978.151 150.6 970.284 150.6C959.218 150.6 950.618 153.533 944.484 159.4C938.351 165.133 935.284 172.8 935.284 182.4C935.284 188.8 936.751 194.4 939.684 199.2C942.618 203.867 946.684 207.533 951.884 210.2C957.218 212.867 963.351 214.2 970.284 214.2ZM1008.48 132.6H1034.48V232H1010.28C1010.28 232 1010.08 230.733 1009.68 228.2C1009.42 225.533 1009.15 222.2 1008.88 218.2C1008.62 214.2 1008.48 210.267 1008.48 206.4V132.6ZM1186.66 234.6C1169.46 234.6 1154.72 231.933 1142.46 226.6C1130.32 221.133 1120.99 213.4 1114.46 203.4C1108.06 193.4 1104.86 181.4 1104.86 167.4C1104.86 153.267 1108.06 141.2 1114.46 131.2C1120.99 121.2 1130.32 113.533 1142.46 108.2C1154.72 102.733 1169.46 100 1186.66 100C1203.99 100 1218.72 102.733 1230.86 108.2C1242.99 113.533 1252.26 121.2 1258.66 131.2C1265.19 141.2 1268.46 153.267 1268.46 167.4C1268.46 181.4 1265.19 193.4 1258.66 203.4C1252.26 213.4 1242.99 221.133 1230.86 226.6C1218.72 231.933 1203.99 234.6 1186.66 234.6ZM1186.66 211.6C1197.32 211.6 1206.66 210 1214.66 206.8C1222.79 203.6 1229.12 198.733 1233.66 192.2C1238.32 185.667 1240.66 177.4 1240.66 167.4C1240.66 157.4 1238.32 149.133 1233.66 142.6C1229.12 136.067 1222.79 131.2 1214.66 128C1206.66 124.667 1197.32 123 1186.66 123C1176.12 123 1166.72 124.667 1158.46 128C1150.19 131.2 1143.72 136.067 1139.06 142.6C1134.39 149.133 1132.06 157.4 1132.06 167.4C1132.06 177.4 1134.39 185.667 1139.06 192.2C1143.72 198.733 1150.19 203.6 1158.46 206.8C1166.72 210 1176.12 211.6 1186.66 211.6ZM1291.02 132.6H1317.02V232H1291.02V132.6ZM1363.22 130.4C1369.36 130.4 1375.02 131.2 1380.22 132.8C1385.42 134.4 1389.96 136.867 1393.82 140.2C1397.69 143.533 1400.69 147.8 1402.82 153C1404.96 158.067 1406.02 164.133 1406.02 171.2V232H1380.02V175.8C1380.02 167.4 1377.96 161.267 1373.82 157.4C1369.82 153.4 1363.22 151.4 1354.02 151.4C1347.09 151.4 1340.82 152.733 1335.22 155.4C1329.62 158.067 1325.09 161.467 1321.62 165.6C1318.16 169.6 1316.16 173.8 1315.62 178.2L1315.42 168C1316.09 163.333 1317.62 158.8 1320.02 154.4C1322.42 150 1325.62 146 1329.62 142.4C1333.76 138.667 1338.62 135.733 1344.22 133.6C1349.82 131.467 1356.16 130.4 1363.22 130.4ZM1520.3 199H1545.5C1544.43 205.8 1541.56 211.867 1536.9 217.2C1532.36 222.533 1526.16 226.733 1518.3 229.8C1510.43 232.867 1500.83 234.4 1489.5 234.4C1476.83 234.4 1465.63 232.4 1455.9 228.4C1446.16 224.267 1438.56 218.333 1433.1 210.6C1427.63 202.867 1424.9 193.533 1424.9 182.6C1424.9 171.667 1427.56 162.333 1432.9 154.6C1438.23 146.733 1445.63 140.733 1455.1 136.6C1464.7 132.467 1475.9 130.4 1488.7 130.4C1501.76 130.4 1512.63 132.467 1521.3 136.6C1529.96 140.733 1536.36 147 1540.5 155.4C1544.76 163.667 1546.56 174.267 1545.9 187.2H1451.1C1451.76 192.267 1453.63 196.867 1456.7 201C1459.9 205.133 1464.16 208.4 1469.5 210.8C1474.96 213.2 1481.43 214.4 1488.9 214.4C1497.16 214.4 1504.03 213 1509.5 210.2C1515.1 207.267 1518.7 203.533 1520.3 199ZM1487.5 150.2C1477.9 150.2 1470.1 152.333 1464.1 156.6C1458.1 160.733 1454.23 165.867 1452.5 172H1520.1C1519.43 165.333 1516.23 160.067 1510.5 156.2C1504.9 152.2 1497.23 150.2 1487.5 150.2Z" fill="url(#paint1_linear_1332_320)"/>
<defs>
<linearGradient id="paint0_linear_1332_320" x1="168.406" y1="358.033" x2="168.406" y2="-37.0627" gradientUnits="userSpaceOnUse">
<stop stop-color="#9F7742"/>
<stop offset="1" stop-color="#E9D69E"/>
</linearGradient>
<linearGradient id="paint1_linear_1332_320" x1="380" y1="167" x2="1480.5" y2="456" gradientUnits="userSpaceOnUse">
<stop stop-color="#9F7742"/>
<stop offset="1" stop-color="#E9D69E"/>
</linearGradient>
</defs>
</svg>
