<?xml version="1.0" encoding="UTF-8"?>
<!DOCTYPE svg PUBLIC "-//W3C//DTD SVG 1.1//EN" "http://www.w3.org/Graphics/SVG/1.1/DTD/svg11.dtd">
<svg xmlns="http://www.w3.org/2000/svg" version="1.1" width="512px" height="512px" style="shape-rendering:geometricPrecision; text-rendering:geometricPrecision; image-rendering:optimizeQuality; fill-rule:evenodd; clip-rule:evenodd" xmlns:xlink="http://www.w3.org/1999/xlink">
<g><path style="opacity:0.986" fill="#323232" d="M 109.5,6.5 C 110.873,6.34332 112.207,6.50999 113.5,7C 147.528,43.3844 186.861,72.3844 231.5,94C 255.464,104.132 280.464,110.465 306.5,113C 327.03,127.029 347.697,140.863 368.5,154.5C 368.833,158.5 369.167,162.5 369.5,166.5C 368.491,193.216 366.824,219.882 364.5,246.5C 255.69,332.143 147.023,417.976 38.5,504C 30.9338,504.689 29.1005,501.856 33,495.5C 65.3333,460.167 97.6667,424.833 130,389.5C 154.804,349.38 179.971,309.547 205.5,270C 135.656,242.208 93.1562,191.375 78,117.5C 71.0693,75.1933 81.5693,38.1933 109.5,6.5 Z"/></g>
<g><path style="opacity:0.984" fill="#2fafc6" d="M 350.5,50.5 C 368.731,54.3205 387.064,58.1538 405.5,62C 414.477,65.2019 423.81,67.5353 433.5,69C 435.081,69.7065 436.581,70.5399 438,71.5C 439.251,98.4851 439.751,125.485 439.5,152.5C 417.164,152.667 394.831,152.5 372.5,152C 351.97,137.971 331.303,124.137 310.5,110.5C 309.386,109.277 309.219,107.944 310,106.5C 324.13,88.2162 337.63,69.5495 350.5,50.5 Z"/></g>
<g><path style="opacity:0.89" fill="#323232" d="M 442.5,78.5 C 455.842,82.5018 469.176,86.5018 482.5,90.5C 482.756,92.7925 482.423,94.9592 481.5,97C 469.551,105.281 457.885,113.948 446.5,123C 444.866,123.494 443.199,123.66 441.5,123.5C 441.184,108.422 441.517,93.4219 442.5,78.5 Z"/></g>
<g><path style="opacity:0.955" fill="#323232" d="M 374.5,156.5 C 396.5,156.5 418.5,156.5 440.5,156.5C 443.221,173.498 445.388,190.498 447,207.5C 421.636,219.849 396.303,232.515 371,245.5C 369.897,243.371 369.397,241.037 369.5,238.5C 371.611,211.141 373.278,183.807 374.5,156.5 Z"/></g>
<g><path style="opacity:0.99" fill="#f3b232" d="M 441.5,293.5 C 440.167,293.5 439.5,294.167 439.5,295.5C 429.443,306.552 419.443,317.552 409.5,328.5C 407.5,328.5 406.5,329.5 406.5,331.5C 396.748,342.244 387.081,352.911 377.5,363.5C 376.167,363.5 375.5,364.167 375.5,365.5C 372.668,368.501 370.002,371.667 367.5,375C 298.321,390.937 228.987,406.437 159.5,421.5C 159.167,421.167 158.833,420.833 158.5,420.5C 159.682,418.239 161.349,416.405 163.5,415C 230.788,362.047 297.788,308.714 364.5,255C 390.869,241.327 417.202,227.66 443.5,214C 445.436,213.187 447.436,212.687 449.5,212.5C 447.704,239.197 445.537,265.864 443,292.5C 442.617,293.056 442.117,293.389 441.5,293.5 Z"/></g>
<g><path style="opacity:0.059" fill="#584212" d="M 441.5,293.5 C 441.167,294.5 440.5,295.167 439.5,295.5C 439.5,294.167 440.167,293.5 441.5,293.5 Z"/></g>
<g><path style="opacity:0.051" fill="#6f5014" d="M 409.5,328.5 C 408.833,329.833 407.833,330.833 406.5,331.5C 406.5,329.5 407.5,328.5 409.5,328.5 Z"/></g>
<g><path style="opacity:0.035" fill="#4a340c" d="M 377.5,363.5 C 377.167,364.5 376.5,365.167 375.5,365.5C 375.5,364.167 376.167,363.5 377.5,363.5 Z"/></g>
</svg>
